The story of Bettie Page, uber-successful 1950's pin-up model, one of the first sex icons in America, and the target of a Senate investigation (based on her bondage photos).

Format : AVI
Format/Info : Audio Video Interleave
File size : 700 MiB
Duration : 1h 30mn
Overall bit rate : 1 079 Kbps
Writing application : VirtualDubMod 1.5.10.1 (build 2439/release)
Writing library : VirtualDubMod build 2439/release

Video
Format : MPEG-4 Visual
Format profile : Simple@L3
Format settings, BVOP : No
Format settings, QPel : No
Format settings, GMC : No warppoints
Format settings, Matrix : Default
Codec ID : XVID
Codec ID/Hint : XviD
Duration : 1h 30mn
Bit rate : 933 Kbps
Width : 576 pixels
Height : 320 pixels
Display aspect ratio : 16/9
Frame rate : 23.976 fps
Resolution : 24 bits
Colorimetry : 4:2:0
Scan type : Progressive
Bits/(Pixel*Frame) : 0.211
Stream size : 605 MiB (86%)
Writing library : XviD 1.0.3 (UTC 2004-12-20)

Audio
Format : MPEG Audio
Format version : Version 1
Format profile : Layer 3
Codec ID : 55
Codec ID/Hint : MP3
Duration : 1h 30mn
Bit rate mode : Variable
Bit rate : 134 Kbps
Minimum bit rate : 128 Kbps
Channel(s) : 2 channels
Sampling rate : 48.0 KHz
Resolution : 16 bits
Stream size : 86.7 MiB (12%)
Alignment : Aligned on interleaves
Interleave, duration : 24 ms (0.58 video frame)
Interleave, preload duration : 137 ms
Writing library : LAME3.96r
Encoding settings : ABR